{
    "accessors": [
        {
            "bufferView": 0,
            "byteOffset": 0,
            "componentType": 5126,
            "count": 24,
            "max": [
                1.0000004768371582,
                1.0000003576278687,
                1.0
            ],
            "min": [
                -1.0000003576278687,
                -1.0000005960464478,
                -1.0
            ],
            "name": "accessor_buffer_Cube_POSITION_0",
            "type": "VEC3"
        },
        {
            "bufferView": 10,
            "byteOffset": 0,
            "componentType": 5126,
            "count": 41,
            "max": [
                1.1432503461837769,
                1.1432503461837769,
                1.1432504653930664
            ],
            "min": [
                1.1432503461837769,
                1.1432501077651978,
                1.1432502269744873
            ],
            "name": "accessor_buffer_Cube_rotate_2",
            "type": "VEC3"
        },
        {
            "bufferView": 9,
            "byteOffset": 0,
            "componentType": 5126,
            "count": 41,
            "max": [
                0.9999982714653015,
                0.0012482678284868598,
                0.0017660593148320913,
                0.9999984502792358
            ],
            "min": [
                -0.9916535019874573,
                -0.001765816006809473,
                -0.0010814606212079525,
                -0.0006526072393171489
            ],
            "name": "accessor_buffer_Cube_rotate_1",
            "type": "VEC4"
        },
        {
            "bufferView": 7,
            "byteOffset": 0,
            "componentType": 5126,
            "count": 41,
            "max": [
                1.6666666666666674
            ],
            "min": [
                0
            ],
            "name": "accessor_buffer_rotate_time_0",
            "type": "SCALAR"
        },
        {
            "bufferView": 1,
            "byteOffset": 0,
            "componentType": 5126,
            "count": 24,
            "max": [
                1.0,
                1.0,
                1.0
            ],
            "min": [
                -1.0,
                -1.0,
                -1.0
            ],
            "name": "accessor_buffer_Cube_NORMAL_0",
            "type": "VEC3"
        },
        {
            "bufferView": 8,
            "byteOffset": 0,
            "componentType": 5126,
            "count": 41,
            "max": [
                -0.1252075731754303,
                0.017247140407562256,
                0.14827632904052734
            ],
            "min": [
                -0.1252075731754303,
                0.017247140407562256,
                0.14827632904052734
            ],
            "name": "accessor_buffer_Cube_rotate_0",
            "type": "VEC3"
        },
        {
            "bufferView": 4,
            "byteOffset": 0,
            "componentType": 5126,
            "count": 41,
            "max": [
                -0.1252075731754303,
                0.017247140407562256,
                12.450416564941406
            ],
            "min": [
                -0.1252075731754303,
                0.017247140407562256,
                0.14827632904052734
            ],
            "name": "accessor_buffer_Cube_jump_0",
            "type": "VEC3"
        },
        {
            "bufferView": 2,
            "byteOffset": 0,
            "componentType": 5123,
            "count": 36,
            "max": [
                23
            ],
            "min": [
                0
            ],
            "name": "accessor_buffer_Cube_0",
            "type": "SCALAR"
        },
        {
            "bufferView": 5,
            "byteOffset": 0,
            "componentType": 5126,
            "count": 41,
            "max": [
                0.0012516577262431383,
                -0.00125117355491966,
                0.0012490175431594253,
                0.9999976754188538
            ],
            "min": [
                0.0012516577262431383,
                -0.00125117355491966,
                0.0012490175431594253,
                0.9999976754188538
            ],
            "name": "accessor_buffer_Cube_jump_1",
            "type": "VEC4"
        },
        {
            "bufferView": 3,
            "byteOffset": 0,
            "componentType": 5126,
            "count": 41,
            "max": [
                1.6666666666666674
            ],
            "min": [
                0
            ],
            "name": "accessor_buffer_jump_time_0",
            "type": "SCALAR"
        },
        {
            "bufferView": 6,
            "byteOffset": 0,
            "componentType": 5126,
            "count": 41,
            "max": [
                1.1432503461837769,
                1.1432502269744873,
                1.1432503461837769
            ],
            "min": [
                1.1432503461837769,
                1.1432502269744873,
                1.1432503461837769
            ],
            "name": "accessor_buffer_Cube_jump_2",
            "type": "VEC3"
        }
    ],
    "animations": [
        {
            "channels": [
                {
                    "sampler": 0,
                    "target": {
                        "node": 0,
                        "path": "translation"
                    }
                },
                {
                    "sampler": 1,
                    "target": {
                        "node": 0,
                        "path": "rotation"
                    }
                },
                {
                    "sampler": 2,
                    "target": {
                        "node": 0,
                        "path": "scale"
                    }
                }
            ],
            "name": "jump",
            "samplers": [
                {
                    "input": 9,
                    "interpolation": "LINEAR",
                    "output": 6
                },
                {
                    "input": 9,
                    "interpolation": "LINEAR",
                    "output": 8
                },
                {
                    "input": 9,
                    "interpolation": "LINEAR",
                    "output": 10
                }
            ]
        },
        {
            "channels": [
                {
                    "sampler": 0,
                    "target": {
                        "node": 0,
                        "path": "translation"
                    }
                },
                {
                    "sampler": 1,
                    "target": {
                        "node": 0,
                        "path": "rotation"
                    }
                },
                {
                    "sampler": 2,
                    "target": {
                        "node": 0,
                        "path": "scale"
                    }
                }
            ],
            "name": "rotate",
            "samplers": [
                {
                    "input": 3,
                    "interpolation": "LINEAR",
                    "output": 5
                },
                {
                    "input": 3,
                    "interpolation": "LINEAR",
                    "output": 2
                },
                {
                    "input": 3,
                    "interpolation": "LINEAR",
                    "output": 1
                }
            ]
        }
    ],
    "asset": {
        "version": "2.0"
    },
    "bufferViews": [
        {
            "buffer": 0,
            "byteLength": 288,
            "byteOffset": 0,
            "byteStride": 12,
            "name": "bufferView_buffer_Cube_POSITION_0",
            "target": 34962
        },
        {
            "buffer": 0,
            "byteLength": 288,
            "byteOffset": 288,
            "byteStride": 12,
            "name": "bufferView_buffer_Cube_NORMAL_0",
            "target": 34962
        },
        {
            "buffer": 0,
            "byteLength": 72,
            "byteOffset": 576,
            "name": "bufferView_buffer_Cube_0",
            "target": 34963
        },
        {
            "buffer": 0,
            "byteLength": 164,
            "byteOffset": 648,
            "byteStride": 4,
            "name": "bufferView_buffer_jump_time_0"
        },
        {
            "buffer": 0,
            "byteLength": 492,
            "byteOffset": 812,
            "byteStride": 12,
            "name": "bufferView_buffer_Cube_jump_0"
        },
        {
            "buffer": 0,
            "byteLength": 656,
            "byteOffset": 1304,
            "byteStride": 16,
            "name": "bufferView_buffer_Cube_jump_1"
        },
        {
            "buffer": 0,
            "byteLength": 492,
            "byteOffset": 1960,
            "byteStride": 12,
            "name": "bufferView_buffer_Cube_jump_2"
        },
        {
            "buffer": 0,
            "byteLength": 164,
            "byteOffset": 2452,
            "byteStride": 4,
            "name": "bufferView_buffer_rotate_time_0"
        },
        {
            "buffer": 0,
            "byteLength": 492,
            "byteOffset": 2616,
            "byteStride": 12,
            "name": "bufferView_buffer_Cube_rotate_0"
        },
        {
            "buffer": 0,
            "byteLength": 656,
            "byteOffset": 3108,
            "byteStride": 16,
            "name": "bufferView_buffer_Cube_rotate_1"
        },
        {
            "buffer": 0,
            "byteLength": 492,
            "byteOffset": 3764,
            "byteStride": 12,
            "name": "bufferView_buffer_Cube_rotate_2"
        }
    ],
    "buffers": [
        {
            "byteLength": 4256,
            "name": "buffer_cube",
            "uri": "data:application/octet-stream;base64,"
        }
    ],
    "materials": [
        {
            "emissiveFactor": [
                0.0,
                0.0,
                0.0
            ],
            "name": "Material",
            "pbrMetallicRoughness": {
                "baseColorFactor": [
                    0.64000004529953,
                    0.64000004529953,
                    0.64000004529953,
                    1.0
                ],
                "metallicFactor": 0.0,
                "roughnessFactor": 1.0
            }
        }
    ],
    "meshes": [
        {
            "name": "Cube",
            "primitives": [
                {
                    "attributes": {
                        "NORMAL": 4,
                        "POSITION": 0
                    },
                    "indices": 7,
                    "material": 0,
                    "mode": 4
                }
            ]
        }
    ],
    "nodes": [
        {
            "mesh": 0,
            "name": "Cube",
            "rotation": [
                0.0012516577262431383,
                -0.00125117355491966,
                0.0012490175431594253,
                0.9999976754188538
            ],
            "scale": [
                1.1432503461837769,
                1.1432502269744873,
                1.1432503461837769
            ],
            "translation": [
                -0.1252075731754303,
                0.017247140407562256,
                0.14827632904052734
            ]
        },
        {
            "children": [
                0
            ],
            "matrix": [
                -1.0,
                0.0,
                0.0,
                0.0,
                0.0,
                0.0,
                1.0,
                0.0,
                0.0,
                1.0,
                0.0,
                0.0,
                0.0,
                0.0,
                0.0,
                1.0
            ],
            "name": "Scene_root"
        }
    ],
    "scene": 0,
    "scenes": [
        {
            "extras": {
                "background_color": [
                    0.05087608844041824,
                    0.05087608844041824,
                    0.05087608844041824
                ],
                "frames_per_second": 24
            },
            "name": "Scene",
            "nodes": [
                1
            ]
        }
    ]
}
